<?xml version="1.0" standalone="no"?>
<!DOCTYPE svg PUBLIC "-//W3C//DTD SVG 20010904//EN"
 "http://www.w3.org/TR/2001/REC-SVG-20010904/DTD/svg10.dtd">
<svg version="1.0" xmlns="http://www.w3.org/2000/svg"
 width="1000.000000pt" height="1000.000000pt" viewBox="0 0 1000.000000 1000.000000"
 preserveAspectRatio="xMidYMid meet">
<metadata>
Created by potrace 1.14, written by Peter Selinger 2001-2017
</metadata>
<g transform="translate(0.000000,1000.000000) scale(0.100000,-0.100000)"
fill="#000000" stroke="none">
<path d="M1509 8705 c-4 -1 -6 -7382 -3 -7395 4 -14 213 -16 1981 -15 1088 1
2005 5 2038 8 146 17 295 38 365 52 207 41 198 39 405 101 455 137 867 357
1254 668 114 93 476 436 458 436 -4 0 16 28 45 63 30 34 67 80 83 102 16 22
32 42 35 45 12 10 127 178 176 255 99 157 182 314 269 510 84 189 207 585 231
742 3 21 7 45 9 53 3 8 7 33 10 55 3 22 8 51 10 65 42 241 52 722 20 950 -2
14 -6 48 -9 75 -4 28 -9 64 -12 80 -2 17 -9 57 -15 90 -68 406 -234 859 -449
1225 -53 90 -192 301 -214 327 -6 7 -51 65 -101 129 -89 116 -314 352 -449
469 -565 493 -1293 813 -2026 889 -25 3 -72 8 -105 13 -41 5 -3988 13 -4006 8z
m3866 -2879 c155 -37 285 -107 399 -216 165 -158 250 -342 263 -571 13 -247
-77 -475 -259 -651 -291 -281 -740 -316 -1078 -85 -178 123 -319 350 -350 565
-64 446 215 857 652 957 40 9 78 18 83 20 32 8 231 -5 290 -19z"/>
</g>
</svg>
